<svg width="60" height="60" viewBox="0 0 60 60" fill="none" xmlns="http://www.w3.org/2000/svg">
<path d="M45.0165 0C45.0165 0 40.08 4.78941 34.741 6.72035C-4.79529 21.0208 11.8789 48.8884 12.4228 48.9802C12.4228 48.9802 14.6398 45.1194 17.6347 42.9173C36.6387 28.9466 40.5012 12.8656 40.5012 12.8656C40.5012 12.8656 36.2367 32.2162 19.3298 44.2567C15.5957 46.9146 13.0672 53.459 11.9969 60C11.9969 60 14.6439 58.9306 15.7821 58.6409C16.2259 55.7444 17.1539 52.9709 18.7228 50.4933C42.3523 53.3066 50.0913 34.2664 51.1024 27.6272C53.4886 11.9469 45.0165 0 45.0165 0Z" fill="#00B37E" fill-opacity="0.55"/>
</svg>
